<svg width="51" height="50" viewBox="0 0 51 50" fill="none" xmlns="http://www.w3.org/2000/svg">
<path fill-rule="evenodd" clip-rule="evenodd" d="M25.19 0L50.38 8.40891V20.1017C50.38 30.3618 45.8458 37.8239 40.4859 42.7098C38.1094 44.8929 35.3548 46.7226 32.3272 48.1289C29.7718 49.2949 27.2164 50 25.19 50C23.1636 50 20.6082 49.2949 18.0528 48.1314C15.4275 46.9329 12.5586 45.139 9.89407 42.7098C4.5314 37.8239 0 30.3618 0 20.1017V8.40891L25.19 0ZM35.5655 21.8632C36.0753 21.3933 36.3574 20.7639 36.3511 20.1106C36.3447 19.4573 36.0503 18.8324 35.5314 18.3705C35.0125 17.9085 34.3105 17.6465 33.5766 17.6408C32.8427 17.6352 32.1357 17.8863 31.6079 18.3401L22.3911 26.5447L18.7721 23.3232C18.2443 22.8693 17.5373 22.6182 16.8034 22.6239C16.0695 22.6296 15.3676 22.8916 14.8486 23.3535C14.3297 23.8155 14.0353 24.4404 14.0289 25.0937C14.0226 25.747 14.3047 26.3763 14.8145 26.8462L20.4123 31.8293C20.9372 32.2964 21.6489 32.5588 22.3911 32.5588C23.1333 32.5588 23.8451 32.2964 24.3699 31.8293L35.5655 21.8632Z" fill="#0B7ED6"/>
</svg>
