<svg width="304" height="240" viewBox="0 0 304 240" fill="none" xmlns="http://www.w3.org/2000/svg">
<g clip-path="url(#clip0_462_1736)">
<path d="M73.9133 28.4395L34.5477 33.1006L38.9444 70.6281L78.31 65.967L73.9133 28.4395Z" fill="#2F2E41"/>
<path d="M53.7933 50.0719C64.4671 50.0719 73.1198 41.3732 73.1198 30.6429C73.1198 19.9125 64.4671 11.2139 53.7933 11.2139C43.1196 11.2139 34.4669 19.9125 34.4669 30.6429C34.4669 41.3732 43.1196 50.0719 53.7933 50.0719Z" fill="#C38C6E"/>
<path d="M41.0511 0.508532C29.0074 3.8698 30.1291 8.38309 26.4799 11.227C20.0506 16.2374 18.7382 28.6632 23.3286 36.2167C24.5551 38.2349 26.955 40.9021 26.324 44.1635C25.8397 46.667 23.7952 48.3522 23.4101 48.6592C20.2584 51.1714 22.1844 48.3986 20.8551 50.3453C19.3878 52.4939 22.3367 54.9344 21.1356 58.6134C20.0709 61.875 17.0984 61.9623 16.9442 63.9522C16.6785 67.3788 25.0196 73.2178 32.9951 71.7367C40.0962 70.4179 44.6999 63.7062 45.8092 57.7673C46.5523 53.7891 46.2932 47.1281 42.853 44.2817C42.3705 43.8825 41.0679 42.9315 39.7385 41.1915C38.6864 39.8146 37.3014 38.002 37.8214 36.576C38.3754 35.0569 40.5107 35.5691 41.6539 34.0469C43.2043 31.9825 40.7368 29.0971 40.6946 25.8591C40.6233 20.3761 47.4938 12.958 55.7048 13.0132C65.0196 13.0759 69.5626 22.7126 70.0394 23.7681C71.0277 25.9556 71.2709 28.1563 71.7573 32.5578C72.4556 38.8743 72.893 42.8333 71.3999 47.1276C69.2524 53.3041 65.5706 53.1002 65.0532 57.564C64.2465 64.5238 72.5694 70.4323 73.5191 71.0891C80.5602 75.9579 90.3978 76.5076 91.7253 73.7759C92.9215 71.3142 86.0759 68.5158 85.4555 61.3744C84.9177 55.1857 89.6618 52.718 88.0888 48.6104C86.3576 44.0889 80.1581 45.9012 76.8689 40.9458C73.7987 36.3204 78.0745 33.0461 76.1479 23.0448C75.7403 20.9291 74.356 14.8825 69.7182 9.27863C67.675 6.80983 65.597 4.29897 62.1316 3.2591C58.2521 2.09497 47.4219 -1.26945 41.0511 0.508532Z" fill="#2F2E41"/>
<path d="M34.9052 18.5306C35.8981 22.6968 42.4519 24.0201 45.2066 24.2287C46.3733 24.317 50.3159 24.6155 53.95 22.5017C55.2932 21.7203 55.7437 21.1042 57.1837 20.7352C59.1332 20.2356 60.2198 20.8748 63.452 21.3765C67.0462 21.9345 68.8434 22.2135 69.6404 21.3356C70.9433 19.9005 69.3445 15.8995 67.3237 13.3085C63.5872 8.5177 57.6672 7.59815 54.9062 7.16919C51.7517 6.67916 45.3502 5.6847 40.0543 9.61951C39.3463 10.1456 33.8964 14.2977 34.9052 18.5306Z" fill="#2F2E41"/>
<path d="M76.4156 236.288C66.8319 238.624 56.8201 239.86 46.5229 239.86C35.3695 239.86 24.5476 238.412 14.2458 235.681C13.1226 231.503 11.8475 226.875 10.4022 221.757C-2.56484 175.801 23.7052 143.218 23.7052 143.218L30.1864 138.077L88.5264 145.962C95.316 179.239 90.897 203.932 76.4156 236.288Z" fill="#05365B"/>
<path d="M66.9124 55.4214L39.6202 52.6777L19.8333 69.8259L25.9741 131.559L23.2448 143.22L88.0639 145.964L84.6524 129.501L89.4285 69.14L66.9124 55.4214Z" fill="#D54300"/>
<path d="M75.7824 87.6602H32.1148V156.253H75.7824V87.6602Z" fill="white"/>
<path d="M69.5514 96.6838H57.35C57.0199 96.6838 56.7515 96.4139 56.7515 96.0821C56.7515 95.7504 57.02 95.4805 57.35 95.4805H69.5514C69.8814 95.4805 70.1499 95.7504 70.1499 96.0821C70.1499 96.4139 69.8814 96.6838 69.5514 96.6838Z" fill="#D54300"/>
<path d="M69.5514 101.312H57.35C57.0199 101.312 56.7515 101.042 56.7515 100.71C56.7515 100.378 57.02 100.108 57.35 100.108H69.5514C69.8814 100.108 70.1499 100.378 70.1499 100.71C70.1499 101.042 69.8814 101.312 69.5514 101.312Z" fill="#D54300"/>
<path d="M69.5514 105.939H57.35C57.0199 105.939 56.7515 105.669 56.7515 105.337C56.7515 105.005 57.02 104.735 57.35 104.735H69.5514C69.8814 104.735 70.1499 105.005 70.1499 105.337C70.1499 105.669 69.8814 105.939 69.5514 105.939Z" fill="#D54300"/>
<path d="M69.0038 122.135H39.334C38.5315 122.135 37.8787 121.479 37.8787 120.672C37.8787 119.865 38.5315 119.209 39.334 119.209H69.0038C69.8063 119.209 70.4591 119.865 70.4591 120.672C70.4591 121.479 69.8063 122.135 69.0038 122.135Z" fill="#E6E6E6"/>
<path d="M52.3126 148.777C58.216 150.637 63.9558 149.082 65.1326 145.305C66.3095 141.528 62.478 136.96 56.5723 135.1C54.2233 134.324 51.7238 134.126 49.2828 134.52L24.1711 126.957L8.23407 138.419L45.9956 145.07C47.7766 146.795 49.9427 148.066 52.3126 148.777Z" fill="#C38C6E"/>
<path d="M22.4052 68.4541C22.4052 68.4541 13.256 73.71 10.6419 84.8787L0.185614 129.554C0.185614 129.554 -1.77494 136.123 7.04754 139.408C15.87 142.693 26.653 128.568 26.653 128.568L21.7285 123.617L31.2277 81.9223L22.4052 68.4541Z" fill="#D54300"/>
<path d="M45.5063 142.174C39.3692 142.958 33.9919 140.411 33.4959 136.484C32.9999 132.558 37.5726 128.74 43.712 127.956C46.1601 127.609 48.6553 127.856 50.9888 128.678L77.0336 125.684L90.7109 139.791L52.3744 139.644C50.3188 141.027 47.9637 141.894 45.5063 142.174Z" fill="#C38C6E"/>
<path d="M89.032 68.4102C89.032 68.4102 97.1161 75.2053 97.7305 86.6624L100.188 132.491C100.188 132.491 100.966 139.305 91.7052 140.975C82.4449 142.645 74.308 126.83 74.308 126.83L80.0236 122.829L77.9857 80.1036L89.032 68.4102Z" fill="#D54300"/>
<path d="M52.584 92.4619H36.891V111.668H52.584V92.4619Z" fill="#D54300"/>
<path d="M41.0803 106.797L40.0023 111.544L39.975 111.667H36.9046C37.273 110.103 37.7302 108.169 37.9417 107.243C38.2078 106.118 38.9038 105.391 39.3472 105.027C39.5724 104.828 39.7361 104.739 39.7361 104.739L41.0803 106.797Z" fill="#E6E6E6"/>
<path d="M51.4446 111.667H48.4561L48.2104 106.516L49.848 104.78L49.8957 104.732C49.8957 104.732 51.1307 105.768 51.2194 107.517C51.2672 108.388 51.3627 110.137 51.4446 111.667Z" fill="#E6E6E6"/>
<path d="M213.429 83.3409C213.429 84.1087 212.81 84.7311 212.046 84.7311C211.282 84.7311 210.663 84.1087 210.663 83.3409V72.7953L207.494 75.9843C206.953 76.5279 206.076 76.5279 205.536 75.9843C204.995 75.4407 204.995 74.5594 205.536 74.0159L211.067 68.4553C211.606 67.9117 212.482 67.9106 213.023 68.4528L213.025 68.4553L218.556 74.0159C219.097 74.5594 219.097 75.4407 218.556 75.9843C218.016 76.5279 217.139 76.5279 216.598 75.9843L213.429 72.7953V83.3409Z" fill="#D54300"/>
<path d="M228.64 90.2912V63.8785L216.194 51.3672H200.984C197.929 51.3672 195.452 53.8567 195.452 56.9278V90.2912C195.452 93.3622 197.929 95.8517 200.984 95.8517H223.108C226.163 95.8517 228.64 93.3622 228.64 90.2912ZM216.194 59.708C216.194 62.0113 218.052 63.8785 220.343 63.8785H225.874V90.2912C225.874 91.8267 224.636 93.0715 223.108 93.0715H200.984C199.456 93.0715 198.218 91.8267 198.218 90.2912V56.9278C198.218 55.3923 199.456 54.1475 200.984 54.1475H216.194V59.708Z" fill="#D54300"/>
<path d="M47.5696 98.6356L42.2318 99.2676L42.828 104.356L48.1658 103.724L47.5696 98.6356Z" fill="#2F2E41"/>
<path d="M44.8414 101.569C46.2887 101.569 47.462 100.389 47.462 98.9343C47.462 97.4793 46.2887 96.2998 44.8414 96.2998C43.3941 96.2998 42.2208 97.4793 42.2208 98.9343C42.2208 100.389 43.3941 101.569 44.8414 101.569Z" fill="#C38C6E"/>
<path d="M43.1136 94.8483C41.4806 95.304 41.6326 95.916 41.1378 96.3016C40.2661 96.981 40.0881 98.6659 40.7105 99.6901C40.8768 99.9638 41.2023 100.325 41.1167 100.768C41.051 101.107 40.7738 101.336 40.7216 101.377C40.2942 101.718 40.5554 101.342 40.3751 101.606C40.1762 101.897 40.576 102.228 40.4132 102.727C40.2688 103.169 39.8657 103.181 39.8448 103.451C39.8088 103.916 40.9398 104.707 42.0213 104.506C42.9841 104.328 43.6084 103.418 43.7588 102.612C43.8596 102.073 43.8244 101.17 43.358 100.784C43.2925 100.73 43.1159 100.601 42.9356 100.365C42.793 100.178 42.6052 99.9322 42.6757 99.7388C42.7508 99.5329 43.0403 99.6023 43.1954 99.3959C43.4056 99.116 43.071 98.7247 43.0653 98.2857C43.0556 97.5422 43.9872 96.5363 45.1006 96.5438C46.3636 96.5523 46.9796 97.859 47.0443 98.0021C47.1783 98.2988 47.2113 98.5972 47.2772 99.194C47.3719 100.05 47.4312 100.587 47.2288 101.17C46.9376 102.007 46.4384 101.979 46.3682 102.585C46.2588 103.528 47.3873 104.33 47.5161 104.419C48.4709 105.079 49.8048 105.153 49.9848 104.783C50.147 104.449 49.2188 104.07 49.1346 103.101C49.0617 102.262 49.705 101.928 49.4917 101.371C49.257 100.758 48.4164 101.003 47.9704 100.331C47.554 99.7042 48.1338 99.2602 47.8726 97.9041C47.8173 97.6172 47.6296 96.7973 47.0007 96.0374C46.7237 95.7027 46.4419 95.3622 45.972 95.2212C45.446 95.0634 43.9775 94.6072 43.1136 94.8483Z" fill="#2F2E41"/>
<path d="M42.2803 97.2916C42.4149 97.8565 43.3036 98.0359 43.6771 98.0642C43.8353 98.0762 44.3699 98.1166 44.8626 97.83C45.0448 97.7241 45.1059 97.6405 45.3011 97.5905C45.5655 97.5227 45.7128 97.6094 46.1511 97.6774C46.6384 97.7531 46.8821 97.7909 46.9902 97.6719C47.1669 97.4773 46.9501 96.9348 46.6761 96.5835C46.1694 95.9338 45.3667 95.8092 44.9923 95.751C44.5646 95.6845 43.6966 95.5497 42.9785 96.0832C42.8825 96.1546 42.1435 96.7176 42.2803 97.2916Z" fill="#2F2E41"/>
<path d="M49.9571 104.849L49.4181 111.667H40.0091L40.0023 111.544L39.3472 105.028L39.3405 104.952L41.3328 103.231L41.9468 102.696L42.3631 102.339L43.4343 102.449L46.5183 102.757H46.5251L47.5622 103.388L49.111 104.335L49.8479 104.781L49.9571 104.849Z" fill="#E6E6E6"/>
<path d="M263.07 74.59C263.07 101.686 240.349 123.68 212.285 123.68C184.221 123.68 161.5 101.686 161.5 74.59C161.5 47.494 184.221 25.5 212.285 25.5C240.349 25.5 263.07 47.494 263.07 74.59Z" stroke="#E6E6E6"/>
</g>
<defs>
<clipPath id="clip0_462_1736">
<rect width="303.509" height="239.86" fill="white"/>
</clipPath>
</defs>
</svg>
