<svg width="280" height="240" viewBox="0 0 280 240" fill="none" xmlns="http://www.w3.org/2000/svg">
<g clip-path="url(#clip0_463_1773)">
<path d="M275.296 188.757L146.634 232.241C145.031 232.78 143.281 232.662 141.765 231.913C140.25 231.163 139.094 229.843 138.551 228.241L78.9531 51.903C78.4135 50.3007 78.5316 48.5498 79.2814 47.0345C80.0312 45.5191 81.3514 44.3631 82.9525 43.82L211.614 0.335748C213.217 -0.203778 214.967 -0.0856936 216.483 0.664092C217.998 1.41388 219.154 2.73413 219.697 4.3352L279.295 180.674C279.834 182.276 279.716 184.027 278.967 185.542C278.217 187.058 276.897 188.214 275.296 188.757Z" fill="#E6E6E6"/>
<path d="M272.012 185.5L147.269 227.659C146.186 228.024 145.003 227.944 143.979 227.438C142.955 226.931 142.174 226.039 141.807 224.957L83.5338 52.5373C83.1692 51.4547 83.249 50.2716 83.7556 49.2478C84.2622 48.2239 85.1543 47.4428 86.2361 47.0758L210.979 4.91597C212.062 4.55142 213.245 4.63121 214.269 5.13782C215.293 5.64443 216.074 6.53649 216.441 7.6183L274.714 180.038C275.079 181.121 274.999 182.304 274.492 183.328C273.986 184.352 273.093 185.133 272.012 185.5Z" fill="white"/>
<path d="M240.653 239.345H104.841C103.151 239.344 101.53 238.671 100.334 237.476C99.1388 236.28 98.4664 234.659 98.4645 232.968V46.831C98.4664 45.1403 99.1388 43.5195 100.334 42.324C101.53 41.1285 103.151 40.456 104.841 40.4541H240.653C242.343 40.456 243.964 41.1285 245.16 42.324C246.355 43.5195 247.028 45.1403 247.03 46.831V232.968C247.028 234.659 246.355 236.28 245.16 237.476C243.964 238.671 242.343 239.344 240.653 239.345Z" fill="#CCCCCC"/>
<path d="M238.585 235.209H106.91C105.767 235.208 104.672 234.754 103.864 233.946C103.056 233.138 102.602 232.043 102.601 230.901V48.8996C102.602 47.7572 103.056 46.662 103.864 45.8542C104.672 45.0465 105.767 44.5921 106.91 44.5908H238.585C239.727 44.5921 240.822 45.0465 241.63 45.8542C242.438 46.662 242.892 47.7572 242.893 48.8996V230.901C242.892 232.043 242.438 233.138 241.63 233.946C240.822 234.754 239.727 235.208 238.585 235.209Z" fill="white"/>
<path d="M210.534 96.2192H123.565C122.833 96.2192 122.13 95.9282 121.612 95.4101C121.094 94.8921 120.803 94.1894 120.803 93.4568C120.803 92.7241 121.094 92.0215 121.612 91.5034C122.13 90.9854 122.833 90.6943 123.565 90.6943H210.534C211.266 90.6943 211.969 90.9854 212.487 91.5034C213.005 92.0215 213.296 92.7241 213.296 93.4568C213.296 94.1894 213.005 94.8921 212.487 95.4101C211.969 95.9282 211.266 96.2192 210.534 96.2192Z" fill="#CCCCCC"/>
<path d="M221.929 105.542H123.565C123.203 105.542 122.843 105.471 122.508 105.332C122.173 105.193 121.869 104.99 121.612 104.733C121.356 104.477 121.152 104.172 121.013 103.837C120.874 103.502 120.803 103.143 120.803 102.78C120.803 102.417 120.874 102.058 121.013 101.723C121.152 101.388 121.356 101.083 121.612 100.827C121.869 100.57 122.173 100.367 122.508 100.228C122.843 100.089 123.203 100.018 123.565 100.018H221.929C222.661 100.018 223.364 100.309 223.882 100.827C224.4 101.345 224.691 102.047 224.691 102.78C224.691 103.513 224.4 104.215 223.882 104.733C223.364 105.251 222.661 105.542 221.929 105.542Z" fill="#CCCCCC"/>
<path d="M210.534 138.001H123.565C122.833 138.001 122.131 137.709 121.614 137.191C121.097 136.673 120.806 135.971 120.806 135.239C120.806 134.507 121.097 133.805 121.614 133.287C122.131 132.769 122.833 132.477 123.565 132.477H210.534C211.266 132.477 211.969 132.768 212.487 133.286C213.005 133.804 213.296 134.506 213.296 135.239C213.296 135.972 213.005 136.674 212.487 137.192C211.969 137.71 211.266 138.001 210.534 138.001Z" fill="#D54300"/>
<path d="M221.929 147.324H123.565C122.833 147.323 122.131 147.032 121.614 146.514C121.097 145.996 120.806 145.293 120.806 144.561C120.806 143.829 121.097 143.127 121.614 142.609C122.131 142.091 122.833 141.8 123.565 141.799H221.929C222.661 141.799 223.364 142.09 223.882 142.608C224.4 143.126 224.691 143.829 224.691 144.561C224.691 145.294 224.4 145.997 223.882 146.515C223.364 147.033 222.661 147.324 221.929 147.324Z" fill="#CCCCCC"/>
<path d="M210.534 179.784H123.565C122.833 179.783 122.131 179.491 121.614 178.974C121.097 178.456 120.806 177.753 120.806 177.021C120.806 176.289 121.097 175.587 121.614 175.069C122.131 174.551 122.833 174.26 123.565 174.259H210.534C211.266 174.259 211.969 174.55 212.487 175.068C213.005 175.586 213.296 176.289 213.296 177.021C213.296 177.754 213.005 178.457 212.487 178.975C211.969 179.493 211.266 179.784 210.534 179.784Z" fill="#CCCCCC"/>
<path d="M221.929 189.108H123.565C122.833 189.108 122.13 188.817 121.612 188.299C121.094 187.781 120.803 187.078 120.803 186.345C120.803 185.613 121.094 184.91 121.612 184.392C122.13 183.874 122.833 183.583 123.565 183.583H221.929C222.661 183.583 223.364 183.874 223.882 184.392C224.4 184.91 224.691 185.613 224.691 186.345C224.691 187.078 224.4 187.781 223.882 188.299C223.364 188.817 222.661 189.108 221.929 189.108Z" fill="#CCCCCC"/>
<path d="M70.4883 127.754H50.4957C50.0845 127.754 49.6902 127.59 49.3994 127.299C49.1086 127.009 48.945 126.614 48.9446 126.203V117.586C48.9446 114.523 50.1612 111.586 52.3267 109.42C54.4923 107.255 57.4294 106.038 60.492 106.038C63.5546 106.038 66.4917 107.255 68.6573 109.42C70.8228 111.586 72.0394 114.523 72.0394 117.586V126.203C72.0389 126.614 71.8754 127.009 71.5846 127.299C71.2938 127.59 70.8995 127.754 70.4883 127.754Z" fill="#2F2E41"/>
<path d="M101.345 172.728C100.839 172.701 100.345 172.564 99.8976 172.326C99.4502 172.088 99.0605 171.755 98.7559 171.35C98.4512 170.945 98.2391 170.478 98.1344 169.983C98.0297 169.487 98.0349 168.974 98.1498 168.481L87.7312 161.909L93.5624 159.27L102.562 165.914C103.378 166.162 104.075 166.701 104.521 167.429C104.967 168.156 105.13 169.022 104.98 169.862C104.83 170.702 104.377 171.457 103.707 171.985C103.037 172.514 102.197 172.778 101.345 172.728Z" fill="#FFB8B8"/>
<path d="M94.1555 167.367C93.8013 167.334 93.4639 167.2 93.1834 166.981L64.5219 144.765L60.8264 138.192C60.469 137.56 60.3085 136.835 60.3655 136.111C60.4225 135.387 60.6945 134.697 61.1465 134.128C61.4594 133.733 61.8505 133.407 62.2954 133.17C62.7403 132.933 63.2294 132.79 63.7319 132.751C64.2345 132.712 64.7397 132.777 65.2159 132.943C65.6921 133.108 66.129 133.37 66.4992 133.712L98.4459 159.623C98.6525 159.763 98.8292 159.942 98.9655 160.151C99.1018 160.36 99.195 160.594 99.2396 160.84C99.2842 161.085 99.2794 161.337 99.2253 161.58C99.1713 161.824 99.0691 162.054 98.9249 162.258L95.8621 166.582C95.7166 166.79 95.5303 166.965 95.3147 167.097C95.0991 167.23 94.8586 167.317 94.6081 167.353C94.4583 167.376 94.3064 167.38 94.1555 167.367Z" fill="#2F2E41"/>
<path d="M26.6086 230.974L30.5261 232.559L38.5042 218.204L32.7226 215.864L26.6086 230.974Z" fill="#FFB8B8"/>
<path d="M26.127 229.29L33.8417 232.412C34.4874 232.673 35.0755 233.059 35.572 233.547C36.0685 234.036 36.464 234.617 36.7358 235.259C37.0075 235.9 37.1504 236.588 37.156 237.285C37.1617 237.981 37.0302 238.672 36.7689 239.318L36.7042 239.477L24.073 234.366L26.127 229.29Z" fill="#2F2E41"/>
<path d="M72.2553 235.382L76.4813 235.381L78.492 219.081L72.2546 219.081L72.2553 235.382Z" fill="#FFB8B8"/>
<path d="M71.1777 234.001L79.5001 234.001H79.5004C80.1969 234.001 80.8866 234.138 81.5301 234.405C82.1735 234.671 82.7582 235.062 83.2507 235.554C83.7432 236.047 84.1339 236.631 84.4004 237.275C84.667 237.918 84.8041 238.608 84.8041 239.305V239.477L71.178 239.477L71.1777 234.001Z" fill="#2F2E41"/>
<path d="M75.7372 226.167C74.0588 226.167 72.4128 225.483 71.5045 225.028C71.269 224.911 71.0636 224.742 70.9039 224.533C70.7443 224.325 70.6348 224.082 70.584 223.824L61.6765 178.915L38.5678 222.151C38.3601 222.54 38.0109 222.834 37.5923 222.973C32.6153 224.636 29.901 222.02 28.9647 220.818C28.7742 220.571 28.6555 220.277 28.6215 219.967C28.5876 219.658 28.6398 219.345 28.7723 219.063L39.4748 195.812L45.9461 173.727L52.4871 157.563L52.6299 157.579L74.5025 159.881L77.1622 174.508L79.8407 223.212C79.8646 223.6 79.754 223.985 79.5276 224.301C79.0994 224.901 78.5289 225.386 77.8674 225.712C77.2059 226.037 76.474 226.194 75.7372 226.167Z" fill="#2F2E41"/>
<path d="M63.3419 127.625C68.0176 127.625 71.8081 123.834 71.8081 119.159C71.8081 114.483 68.0176 110.692 63.3419 110.692C58.6662 110.692 54.8757 114.483 54.8757 119.159C54.8757 123.834 58.6662 127.625 63.3419 127.625Z" fill="#FFB8B8"/>
<path d="M66.2861 166.604C62.6003 166.604 58.0399 164.447 52.684 160.162L52.5928 160.089L56.3795 130.216L56.5563 130.21C61.9726 130.014 66.3803 131.389 70.0296 134.424L70.0609 134.457L73.02 138.261L73.0213 138.331L73.4385 161.697L73.428 161.73C73.036 162.799 72.4037 163.765 71.5798 164.551C70.7559 165.337 69.7623 165.924 68.6758 166.266C67.9002 166.495 67.095 166.609 66.2861 166.604Z" fill="#D54300"/>
<path d="M71.7377 180.571C71.324 180.57 70.922 180.433 70.594 180.18C70.266 179.928 70.0303 179.575 69.9233 179.175L64.725 159.496L61.432 177.425C61.3455 177.9 61.0782 178.324 60.6862 178.607C60.2941 178.89 59.8077 179.011 59.3289 178.943L44.9894 176.942C44.7161 176.904 44.4546 176.806 44.2235 176.655C43.9924 176.504 43.7975 176.304 43.6526 176.069C43.5078 175.834 43.4166 175.57 43.3855 175.296C43.3545 175.022 43.3844 174.744 43.4731 174.483L50.7265 153.104L49.1028 140.579C48.9356 139.289 49.0385 137.978 49.4049 136.73C49.7714 135.483 50.3933 134.324 51.2313 133.33C52.0693 132.335 53.105 131.526 54.2725 130.953C55.4401 130.38 56.7141 130.056 58.0136 130.002L58.1589 129.996L65.056 146.63L66.153 142.242L67.8697 132.798L68.126 132.946C70.5496 134.344 72.5424 136.38 73.8868 138.833C75.2311 141.287 75.8752 144.062 75.7487 146.857L75.3137 156.86L79.1672 177.284C79.2585 177.772 79.1528 178.276 78.8733 178.686C78.5938 179.097 78.1632 179.38 77.6756 179.473L72.0868 180.538C71.9717 180.56 71.8549 180.571 71.7377 180.571Z" fill="#2F2E41"/>
<path d="M74.7712 118.448H62.5463L62.4209 116.693L61.7941 118.448H59.9117L59.6633 114.97L58.421 118.448H54.7787V118.276C54.7814 115.854 55.7447 113.533 57.4571 111.82C59.1695 110.108 61.4913 109.144 63.9131 109.142H65.6367C68.0585 109.144 70.3803 110.108 72.0928 111.82C73.8052 113.533 74.7685 115.854 74.7712 118.276V118.448Z" fill="#2F2E41"/>
<path d="M274.725 239.864H0.344699C0.253279 239.864 0.165603 239.828 0.10096 239.763C0.0363161 239.699 0 239.611 0 239.52C0 239.428 0.0363161 239.34 0.10096 239.276C0.165603 239.211 0.253279 239.175 0.344699 239.175H274.725C274.817 239.175 274.904 239.211 274.969 239.276C275.034 239.34 275.07 239.428 275.07 239.52C275.07 239.611 275.034 239.699 274.969 239.763C274.904 239.828 274.817 239.864 274.725 239.864Z" fill="#CCCCCC"/>
<path d="M66.5797 170.998C66.5791 171.551 66.6974 172.098 66.9266 172.601C67.1557 173.104 67.4903 173.552 67.9078 173.915C68.3252 174.277 68.8157 174.546 69.346 174.702C69.8763 174.858 70.4341 174.899 70.9814 174.821C71.4865 175.98 72.3189 176.966 73.3765 177.659C74.4341 178.352 75.6709 178.721 76.9352 178.721C77.788 178.721 78.6324 178.553 79.4203 178.227C80.2082 177.9 80.9241 177.422 81.5272 176.819C82.1302 176.216 82.6086 175.5 82.9349 174.712C83.2613 173.924 83.4293 173.08 83.4293 172.227V166.6C83.4293 165.152 82.2552 164.667 80.8069 164.667H73.0634C71.6152 164.667 70.4411 165.152 70.4411 166.6V167.137C69.4173 167.138 68.4358 167.545 67.712 168.269C66.9881 168.993 66.5809 169.974 66.5797 170.998ZM67.6328 170.998C67.6337 170.254 67.9298 169.54 68.4563 169.013C68.9827 168.487 69.6965 168.191 70.4411 168.19V172.227C70.4411 172.756 70.5056 173.283 70.6333 173.797C70.5695 173.801 70.5059 173.806 70.4411 173.806C69.6965 173.806 68.9827 173.509 68.4563 172.983C67.9298 172.457 67.6337 171.743 67.6328 170.998Z" fill="#D54300"/>
<path d="M69.6895 170.071C69.454 169.622 69.1229 169.23 68.7197 168.924C68.3165 168.617 67.8508 168.402 67.3556 168.294C66.8604 168.187 66.3477 168.189 65.8535 168.302C65.3593 168.414 64.8957 168.633 64.4954 168.943L54.1708 162.226L54.2101 168.626L64.0086 174.024C64.575 174.662 65.3559 175.07 66.2031 175.171C67.0503 175.272 67.905 175.058 68.6052 174.571C69.3055 174.084 69.8026 173.356 70.0025 172.527C70.2023 171.697 70.091 170.823 69.6895 170.071Z" fill="#FFB8B8"/>
<path d="M58.51 173.977C58.0986 173.976 57.7041 173.813 57.4131 173.522L44.2663 160.375C43.8462 159.958 43.5397 159.44 43.3758 158.871C43.2119 158.302 43.1961 157.701 43.3297 157.124C44.4551 152.204 47.1974 140.449 48.3551 137.554C49.2001 135.378 50.7642 133.556 52.7876 132.391L52.8393 132.365L57.0014 133.134L57.3682 145.972L52.3405 156.746L63.031 166.838C63.3123 167.101 63.4848 167.461 63.5146 167.845C63.5445 168.23 63.4295 168.612 63.1923 168.916L59.736 173.376C59.6011 173.55 59.4307 173.693 59.2361 173.796C59.0416 173.899 58.8273 173.96 58.6076 173.974C58.575 173.976 58.5424 173.977 58.51 173.977Z" fill="#2F2E41"/>
<path d="M76.9209 166.442C79.5861 166.442 81.7467 166.134 81.7467 165.753C81.7467 165.372 79.5861 165.063 76.9209 165.063C74.2557 165.063 72.0951 165.372 72.0951 165.753C72.0951 166.134 74.2557 166.442 76.9209 166.442Z" fill="#2F2E41"/>
</g>
<defs>
<clipPath id="clip0_463_1773">
<rect width="279.631" height="239.863" fill="white"/>
</clipPath>
</defs>
</svg>
