<svg width="51" height="50" viewBox="0 0 51 50" fill="none" xmlns="http://www.w3.org/2000/svg">
<path d="M48.5591 41.4963L44.402 42.4788C43.4698 42.7056 42.7392 43.411 42.5376 44.3432L41.6558 48.0468C41.1771 50.0624 38.6073 50.6923 37.272 49.105L29.7388 40.4381C29.1341 39.7326 29.4617 38.6241 30.3687 38.3973C34.8281 37.314 38.834 34.8197 41.7818 31.2673C42.2605 30.6878 43.1171 30.6122 43.6462 31.1413L49.2394 36.7345C51.1541 38.6493 50.4739 41.0428 48.5591 41.4963Z" fill="#D54300" fill-opacity="0.8"/>
<path d="M1.82062 41.4963L5.97771 42.4788C6.90991 42.7056 7.64055 43.411 7.84211 44.3432L8.72392 48.0468C9.20261 50.0624 11.7725 50.6923 13.1078 49.105L20.6409 40.4381C21.2456 39.7326 20.9181 38.6241 20.0111 38.3973C15.5516 37.314 11.5457 34.8197 8.59794 31.2673C8.11925 30.6878 7.26263 30.6122 6.73355 31.1413L1.14036 36.7345C-0.77442 38.6493 -0.0941678 41.0428 1.82062 41.4963Z" fill="#D54300" fill-opacity="0.8"/>
<path d="M25.2535 0C15.5032 0 7.61731 7.88589 7.61731 17.6362C7.61731 21.2894 8.70067 24.6402 10.5651 27.4368C13.2861 31.468 17.5943 34.3149 22.6081 35.0456C23.4647 35.1968 24.3465 35.2723 25.2535 35.2723C26.1605 35.2723 27.0423 35.1968 27.8989 35.0456C32.9126 34.3149 37.2209 31.468 39.9419 27.4368C41.8063 24.6402 42.8896 21.2894 42.8896 17.6362C42.8896 7.88589 35.0038 0 25.2535 0ZM32.963 17.0819L30.8719 19.173C30.5191 19.5258 30.3176 20.206 30.4436 20.7099L31.0482 23.3049C31.5269 25.3457 30.4436 26.1519 28.6295 25.0686L26.1101 23.5821C25.6566 23.3049 24.9008 23.3049 24.4473 23.5821L21.9278 25.0686C20.1138 26.1267 19.0304 25.3457 19.5091 23.3049L20.1138 20.7099C20.2146 20.2312 20.0382 19.5258 19.6855 19.173L17.544 17.0819C16.3094 15.8474 16.7125 14.6128 18.4258 14.3357L21.1216 13.8822C21.5751 13.8066 22.1042 13.4035 22.3057 13.0004L23.7922 10.0274C24.5984 8.41497 25.9085 8.41497 26.7148 10.0274L28.2012 13.0004C28.4028 13.4035 28.9319 13.8066 29.4106 13.8822L32.1064 14.3357C33.7944 14.6128 34.1975 15.8474 32.963 17.0819Z" fill="#D54300" fill-opacity="0.8"/>
</svg>
